<mxfile host="65bd71144e">
    <diagram id="ulWBk5PpDcILQRo7VZY5" name="Page-1">
        <mxGraphModel dx="520" dy="272" grid="1" gridSize="10" guides="1" tooltips="1" connect="1" arrows="1" fold="1" page="1" pageScale="1" pageWidth="850" pageHeight="1100" math="0" shadow="0">
            <root>
                <mxCell id="0"/>
                <mxCell id="1" parent="0"/>
                <mxCell id="2" value="kachhya" style="swimlane;" vertex="1" parent="1">
                    <mxGeometry x="170" y="50" width="200" height="900" as="geometry"/>
                </mxCell>
                <mxCell id="4" value="Register" style="rounded=0;whiteSpace=wrap;html=1;" vertex="1" parent="2">
                    <mxGeometry x="30" y="100" width="120" height="40" as="geometry"/>
                </mxCell>
                <mxCell id="3" value="Register" style="rounded=0;whiteSpace=wrap;html=1;" vertex="1" parent="1">
                    <mxGeometry x="200" y="90" width="120" height="40" as="geometry"/>
                </mxCell>
            </root>
        </mxGraphModel>
    </diagram>
</mxfile>